<?xml version="1.0" encoding="utf-8"?>
<svg width="64px" height="64px" viewBox="0 0 64 64" version="1.1" xmlns:xlink="http://www.w3.org/1999/xlink" xmlns="http://www.w3.org/2000/svg">
  <defs>
    <linearGradient gradientUnits="objectBoundingBox" x1="0" y1="0" x2="1" y2="1" id="gradient_1">
      <stop offset="0%" stop-color="#00FFFF" />
      <stop offset="100%" stop-color="#FF00FF" />
    </linearGradient>
    <path d="M64 0L64 0L64 64L0 64L0 0L64 0Z" id="path_1" />
    <clipPath id="clip_1">
      <use xlink:href="#path_1" clip-rule="evenodd" fill-rule="evenodd" />
    </clipPath>
  </defs>
  <g id="Frame">
    <path d="M64 0L64 0L64 64L0 64L0 0L64 0Z" id="Frame" fill="none" stroke="none" />
    <path d="M48 0C56.8378 0 64 7.16224 64 16L64 48C64 56.8378 56.8378 64 48 64L16 64C7.16224 64 0 56.8378 0 48L0 16C0 7.16224 7.16224 0 16 0L48 0Z" id="Rectangle" fill="#000000" stroke="none" clip-path="url(#clip_1)" />
    <path d="M39.1818 17.625L20.6364 17.625C19.833 17.625 19.1474 17.9057 18.5793 18.4671C18.0113 19.0284 17.7273 19.7061 17.7273 20.5L17.7273 53.2031C17.7273 54.1954 16.9133 54.9999 15.9091 54.9999L10.8182 54.9999C9.814 54.9999 9 54.1954 9 53.2031L9 20.5C9 17.3244 10.136 14.6138 12.4082 12.3683C14.6804 10.1228 17.4231 9 20.6364 9L39.1818 9C40.186 9 41 9.80449 41 10.7969L41 15.8281C41 16.8205 40.186 17.625 39.1818 17.625L39.1818 17.625ZM24.8182 46.375L41.9091 46.375C43.1141 46.375 44.1426 45.954 44.9947 45.1119C45.8467 44.2698 46.2728 43.2534 46.2728 42.0625L46.2727 15.5822L46.2727 10.7969C46.2727 10.3007 46.4502 9.87716 46.8052 9.52629C47.1603 9.17545 47.5888 9 48.0909 9L53.1818 9C54.186 9 55 9.80449 55 10.7969L55 42.0625C55 45.6351 53.7219 48.6845 51.1658 51.2107C48.6096 53.7369 45.5241 55 41.9091 55L24.8182 54.9999C23.814 54.9999 23 54.1954 23 53.2031L23 48.1719C23 47.1795 23.814 46.375 24.8182 46.375L24.8182 46.375Z" id="Vector" fill="url(#gradient_1)" fill-rule="evenodd" stroke="none" clip-path="url(#clip_1)" />
  </g>
</svg>
