<svg width="600" height="96" viewBox="0 0 600 96" fill="none" xmlns="http://www.w3.org/2000/svg">
<path fill-rule="evenodd" clip-rule="evenodd" d="M38.4236 62.9869C62.4609 62.9869 80.9705 52.1415 84.4882 35.4562C89.0947 14.0156 74.019 0 46.8827 0C22.8453 0 4.41948 10.762 0.818066 27.4473C-1.93751 40.3229 2.37995 50.5117 12.0852 56.6208C13.3069 61.9239 15.9833 66.5727 20.0096 70.354C22.3653 72.5665 25.1395 74.4412 28.2829 75.9671C29.7429 79.544 31.9541 82.7455 34.8764 85.49C42.2184 92.3854 53.6255 96 67.6033 96C91.0686 96 110.678 85.8702 115.914 68.7485L118.674 79.1955H129.541L133.541 94.3315H165.363L184.693 67.2775H181.022L163.821 91.352H135.847L132.634 79.1955H150.497L173.914 46.4209H170.242L148.954 76.216H120.98L117.043 61.3184H134.641L136.139 59.222L136.726 61.4495L147.156 46.4209H145.285L177.439 1.41825H153.737L122.413 46.5519L110.52 1.41825H90.8378L106.667 61.3184H113.95L115.525 67.2775H113.228C108.804 82.9456 90.7711 93.0205 67.6033 93.0205C50.4135 93.0205 38.0257 87.3615 32.4597 77.713C38.2988 79.7958 45.1378 80.864 52.7365 80.864C77.3839 80.864 97.7778 69.6877 101.727 50.9718C102.059 49.4251 102.297 47.9071 102.442 46.4209H99.4362C99.3002 47.7018 99.0891 49.0133 98.8011 50.3538C95.2834 67.0391 76.7738 77.8845 52.7365 77.8845C33.3177 77.8845 20.027 70.6628 15.7762 58.6261C21.8356 61.4549 29.4796 62.9869 38.4236 62.9869ZM20.6677 31.2849C22.5941 22.3583 32.812 16.435 45.8777 16.435C58.9433 16.435 66.6486 22.4417 64.6385 31.5352C62.7959 40.5452 52.4942 46.4685 39.4286 46.4685C26.363 46.4685 18.6576 40.4618 20.6677 31.2849Z" fill="url(#paint0_linear_1028_94)"/>
<path d="M215.612 61.3184H201.119L205.474 41.2961L182.525 1.41825H204.553L217.618 25.1113L238.222 1.41825H265.274L225.575 41.2961L221.387 61.3184H218.672L215.432 76.216H235.7L239.888 56.1936L249.617 46.4209H253.829L242.635 57.6651L238.132 79.1955H232.943L230.298 91.352H250.567L254.755 71.3296L258.789 67.2775H263.001L257.502 72.8011L252.999 94.3315H226.59L229.882 79.1955H211.723L215.612 61.3184Z" fill="url(#paint1_linear_1028_94)"/>
<path fill-rule="evenodd" clip-rule="evenodd" d="M330.7 52.94L341.794 1.41825H387.356C406.368 1.41825 413.487 9.67746 410.891 21.9411C409.299 29.2827 403.855 34.2883 395.48 36.5408C402.432 37.1247 406.033 41.0458 404.526 47.9702L401.678 61.3184H398.155C398.324 61.7636 398.406 62.2903 398.409 62.9091C398.415 63.7855 398.264 64.8464 397.984 66.1214L395.806 76.216H415.991L418.838 62.8677C420.056 57.1601 417.771 54.235 414.977 52.7926C413.563 52.0628 411.82 51.6087 409.793 51.4383C411.661 50.9358 413.384 50.2963 414.95 49.5245C415.998 49.0083 416.975 48.433 417.88 47.7998C415.972 43.021 415.717 37.1791 417.221 30.3672L423.587 1.41825H443.688L437.239 31.2015C434.977 41.3795 439.584 46.4685 450.472 46.4685C450.81 46.4685 451.145 46.4636 451.475 46.4537C451.477 46.4428 451.48 46.4318 451.482 46.4209H452.256C462.076 45.8845 468.014 40.8202 470.07 31.3683L476.603 1.41825H496.704L490.087 32.0357C488.747 38.1149 486.771 43.2471 484.092 47.4772C481.66 56.6874 475.224 61.3661 464.785 61.3661C464.64 61.3661 464.497 61.3652 464.355 61.3634C460.065 62.454 455.226 62.9869 449.802 62.9869C442.515 62.9869 436.34 62.0106 431.352 60.1218C434.33 71.6176 445.653 77.8845 464.115 77.8845C483.928 77.8845 495.927 70.775 501.904 55.3478C497.969 51.9375 495.886 47.3563 495.686 41.5463H516.205C516.038 46.3017 521.649 48.8044 531.7 48.8044C541.75 48.8044 546.273 47.5531 547.027 44.3828C547.781 40.6287 544.431 39.2104 531.449 38.4596L528.266 38.2927C506.322 37.2916 497.445 29.6998 500.376 15.9344C502.554 5.83985 514.698 0 533.542 0C556.994 0 569.64 7.09124 570.143 20.4395H549.707C549.874 16.1013 545.101 14.1825 533.542 14.1825C525 14.1825 521.063 15.3505 520.477 17.9367C519.723 21.1903 522.822 22.692 534.38 23.6931L538.065 24.0268C561.768 26.1125 570.143 32.2026 567.295 45.5508C564.699 57.2305 553.308 62.9869 532.37 62.9869C523.423 62.9869 516.088 62.0191 510.391 60.0346C512.714 72.1682 524.94 77.8845 546.683 77.8845C567.621 77.8845 579.012 72.1281 581.608 60.4484C582.905 54.3698 581.874 49.7964 578.129 46.4209H582.169C583.178 47.7591 583.939 49.2445 584.438 50.8827C585.384 53.9915 585.313 57.4143 584.534 61.0677L584.531 61.0801L584.529 61.0925C583.022 67.872 578.898 72.9379 572.367 76.2084C565.98 79.4066 557.363 80.864 546.683 80.864C538.79 80.864 531.926 80.13 526.216 78.5275C530.048 88.3614 541.92 93.0205 561.55 93.0205C582.488 93.0205 593.879 87.2641 596.475 75.5844C597.149 72.4226 597.194 69.668 596.555 67.2775H599.63C600.22 70.0434 600.076 73.0369 599.401 76.2037L599.398 76.2161L599.395 76.2285C597.888 83.008 593.765 88.0739 587.234 91.3444C580.847 94.5426 572.229 96 561.55 96C549.464 96 539.789 94.2788 532.978 90.3541C527.642 87.2792 524.185 82.916 522.697 77.3734C521.049 76.7462 519.519 76.0292 518.112 75.2181L517.997 75.1518C515.476 80.3312 512.14 84.5871 507.863 87.8799C500.565 93.4998 490.932 96 478.981 96C465.975 96 455.728 92.9906 449.362 86.6367C446.738 84.0183 444.876 80.9391 443.748 77.4697C441.222 76.4389 438.952 75.1682 436.961 73.6508C437.128 75.22 437.007 76.8927 436.631 78.6231L436.628 78.6352L433.28 94.3315H406.971L409.928 80.6207C410.05 80.0678 410.136 79.5966 410.193 79.1955H392.104L392.51 77.3125H384.288L380.687 94.3315H354.375L357.634 79.1955H354.658L351.482 94.3315H283.707L286.967 79.1955H268.84L272.69 61.3184H258.228L271.127 1.41825H332.602L329.419 16.1847H287.961L286.202 24.6108H325.818L322.97 38.0424H283.355L281.512 46.5519H322.97L321.63 52.94H330.7ZM321.004 55.9195L320.469 58.47H329.509L330.058 55.9195H321.004ZM275.749 61.3184L272.541 76.216H334.184L337.283 61.4495H295.825L295.853 61.3184H275.749ZM507.169 58.7211C506.178 58.251 505.252 57.7411 504.388 57.1913C501.755 63.665 498.027 68.8707 492.996 72.7439C485.698 78.3639 476.065 80.864 464.115 80.864C457.888 80.864 452.294 80.1743 447.456 78.7582C451.695 88.0197 462.49 93.0205 478.981 93.0205C497.461 93.0205 509.143 86.8355 515.482 73.4853C510.677 69.8651 507.874 64.9043 507.169 58.7211ZM427.977 58.6108C424.115 56.581 421.174 53.8653 419.203 50.5064C418.833 50.7538 418.455 50.9926 418.067 51.2227C418.703 51.7062 419.284 52.2585 419.8 52.8852C422.13 55.7135 422.642 59.4427 421.764 63.4871L421.762 63.4992L418.413 79.1955H413.208C413.139 79.8106 413.018 80.4958 412.851 81.2574L410.673 91.352H430.858L433.705 78.0037C434.923 72.2961 432.638 69.3709 429.844 67.9285C429.361 67.6793 428.839 67.4621 428.281 67.2775H431.152C429.56 64.6811 428.507 61.7778 427.977 58.6108ZM381.951 59.197L383.671 51.2238C384.843 45.8845 383.755 44.2994 378.394 44.2994H352.682L349.08 61.3184H346.417L343.209 76.216H363.393L366.995 59.197H381.951ZM343.357 61.3184H340.366L337.788 73.606H340.711L343.357 61.3184ZM358.461 17.1024L356.032 28.6153H380.153C385.346 28.6153 389.366 27.5307 390.204 23.1091C391.041 18.2704 387.858 17.1024 382.414 17.1024H358.461ZM337.162 76.5855L336.615 79.1955H290.026L287.408 91.352H349.051L351.602 79.1955H339.508L340.07 76.5855H337.162ZM395.062 65.4847L393.153 74.333H381.862L378.26 91.352H358.075L360.693 79.1955H365.82L369.421 62.1765H392.707C393.941 62.1765 394.701 62.2725 395.156 62.3986C395.259 62.427 395.332 62.453 395.383 62.4738C395.397 62.5469 395.412 62.6625 395.417 62.8335L395.417 62.856C395.43 63.4059 395.336 64.2372 395.062 65.4847Z" fill="url(#paint2_linear_1028_94)"/>
<defs>
<linearGradient id="paint0_linear_1028_94" x1="1.78884e-07" y1="48" x2="599.996" y2="49.5523" gradientUnits="userSpaceOnUse">
<stop stop-color="#00FFFF"/>
<stop offset="1" stop-color="#FF00FF"/>
</linearGradient>
<linearGradient id="paint1_linear_1028_94" x1="1.78884e-07" y1="48" x2="599.996" y2="49.5523" gradientUnits="userSpaceOnUse">
<stop stop-color="#00FFFF"/>
<stop offset="1" stop-color="#FF00FF"/>
</linearGradient>
<linearGradient id="paint2_linear_1028_94" x1="1.78884e-07" y1="48" x2="599.996" y2="49.5523" gradientUnits="userSpaceOnUse">
<stop stop-color="#00FFFF"/>
<stop offset="1" stop-color="#FF00FF"/>
</linearGradient>
</defs>
</svg>
