<svg width="1197.3826px" height="147.25671px" viewBox="0 0 1197.3826 147.25671" version="1.1" xmlns="http://www.w3.org/2000/svg">
  <defs>
    <linearGradient gradientUnits="objectBoundingBox" x1="0" y1="0.4957329" x2="0.9996805" y2="0.4957329" id="gradient_1">
      <stop offset="0%" stop-color="#00FFFF" />
      <stop offset="50%" stop-color="#6B8DD6" />
      <stop offset="100%" stop-color="#FF00FF" />
    </linearGradient>
  </defs>
  <path d="M862.191 0C858.128 0 854.834 3.29401 854.834 7.35742L854.834 28.2441L854.834 28.7129L854.834 126.221C854.834 137.786 864.169 147.164 875.715 147.248L994.6 147.248C1006.22 147.248 1015.63 137.828 1015.63 126.211L1015.63 29.1289L1015.63 7.77344C1015.63 3.70996 1012.34 0.415955 1008.28 0.415955L1001.83 0.415955L998.172 0.415955L993.697 0.415955C989.634 0.415955 986.34 3.70996 986.34 7.77344L986.34 29.1289L986.34 108.234C986.34 115.008 980.848 120.496 974.074 120.496L898.539 120.496C890.581 120.496 884.129 114.048 884.129 106.09L884.129 28.7129L884.129 28.2441L884.129 7.35742C884.129 3.29401 880.835 0 876.771 0L870.326 0L866.666 0L862.191 0ZM21.037 0.416016C9.41974 0.416016 0.00189209 9.83588 0.00189209 21.4532L0.00189209 18.0371C0.00189209 17.429 0.0321045 16.8286 0.0918579 16.2363C0.0313721 16.8286 0 17.429 0 18.0371L0 127.955C0 138.612 8.64001 147.252 19.2969 147.252L29.2949 147.252L29.2949 109.299L29.2949 86.7949L29.2949 39.4336C29.2949 32.6602 34.7847 27.168 41.5586 27.168L113.211 27.168L113.211 0.415955L21.037 0.416016ZM131.504 0.416016L131.504 38.3672L131.504 62.4121L131.504 108.234C131.504 115.008 126.014 120.5 119.24 120.5L47.5878 120.5L47.5878 147.252L139.768 147.252C151.359 147.252 160.757 137.871 160.799 126.289L160.799 19.7129C160.799 9.05609 152.159 0.415955 141.502 0.415955L131.504 0.416016ZM183.59 0.416016C179.526 0.416016 176.232 3.71002 176.232 7.7735L176.232 29.1309L176.232 141.977C176.232 144.889 178.592 147.252 181.504 147.252L197.656 147.252C210.093 147.252 226.453 139.36 234.197 129.629L334.305 3.84375C335.811 1.95123 335.071 0.416016 332.652 0.416016L318.846 0.416016C308.734 0.416016 295.431 6.83215 289.135 14.7441L214.447 108.59C209.52 114.78 205.527 113.387 205.527 105.475L205.527 29.131L205.527 7.77356C205.527 3.71008 202.233 0.416077 198.17 0.416077L191.723 0.416077L188.064 0.416077L183.59 0.416016ZM359.545 0.416016C359.037 0.416016 358.541 0.468567 358.062 0.566467C357.583 0.664307 357.122 0.809875 356.682 0.996155C356.241 1.1825 355.823 1.40942 355.432 1.67383C355.04 1.93842 354.675 2.23944 354.342 2.57233C354.009 2.90527 353.708 3.26874 353.443 3.66016C353.179 4.05164 352.952 4.47009 352.766 4.91016C352.579 5.35034 352.434 5.81207 352.336 6.29102C352.238 6.77002 352.187 7.26556 352.187 7.7735L352.187 29.1289L352.187 29.1309L352.187 54.6505L352.301 54.6505L352.301 54.6524C352.301 55.6943 352.331 56.7295 352.396 57.754C352.46 58.7784 352.555 59.7923 352.679 60.7988C352.804 61.8054 352.959 62.8029 353.142 63.7911C353.326 64.7791 353.538 65.7593 353.777 66.7285C354.016 67.6978 354.282 68.6577 354.574 69.6074C354.866 70.5573 355.183 71.4958 355.525 72.4258C356.209 74.2858 356.99 76.1069 357.859 77.8848C358.728 79.6627 359.685 81.398 360.717 83.0899C361.748 84.7817 362.856 86.4292 364.029 88.0312C365.202 89.6334 366.441 91.1907 367.734 92.6993C369.011 94.1885 370.342 95.6291 371.715 97.0234C371.733 97.0424 371.749 97.0612 371.767 97.0782C371.768 97.0786 371.767 97.0799 371.767 97.0802C371.79 97.1029 371.814 97.1226 371.836 97.1448C373.207 98.5323 374.622 99.8867 376.082 101.203C377.566 102.542 379.094 103.844 380.662 105.112C382.23 106.38 383.838 107.614 385.48 108.815C387.123 110.016 388.8 111.182 390.51 112.319C390.51 112.319 390.511 112.318 390.512 112.319C392.221 113.455 393.961 114.562 395.729 115.637C397.496 116.712 399.292 117.757 401.109 118.774C402.927 119.79 404.768 120.779 406.627 121.74C408.42 122.668 410.231 123.567 412.055 124.446C412.122 124.476 412.187 124.513 412.254 124.545C412.496 124.662 412.743 124.769 412.986 124.885C414.438 125.576 415.893 126.255 417.355 126.914C418.25 127.319 419.149 127.705 420.047 128.098C420.767 128.412 421.485 128.729 422.207 129.036C423.062 129.4 423.917 129.748 424.773 130.102C427.609 131.268 430.45 132.377 433.293 133.428C434.887 134.021 436.47 134.581 438.062 135.137C439.806 135.743 441.547 136.327 443.283 136.889C445.505 137.612 447.706 138.301 449.906 138.95C467.887 144.252 485.001 147.133 498.422 147.133L498.424 147.133L498.424 147.252L632.56 147.252L632.56 147.248L653.918 147.248C657.981 147.248 661.275 143.956 661.275 139.893L661.275 133.444L661.275 129.786L661.275 125.311C661.275 121.247 657.981 117.953 653.918 117.953L632.56 117.953L608.125 117.953L522.863 117.953L498.424 117.953L498.424 118.074L498.422 118.074C492.103 118.074 482.494 116.706 471.619 114.25C471.619 114.25 471.619 114.249 471.619 114.248C468.356 113.511 464.963 112.658 461.514 111.721C460.367 111.408 459.227 111.103 458.066 110.768C456.778 110.398 455.484 110.018 454.184 109.621C451.573 108.821 448.948 107.977 446.318 107.07C445.699 106.858 445.082 106.642 444.463 106.424C441.381 105.332 438.305 104.18 435.271 102.947C434.936 102.811 434.6 102.675 434.266 102.537C432.903 101.975 431.547 101.402 430.205 100.813C429.86 100.661 429.518 100.505 429.174 100.352C427.794 99.735 426.424 99.1086 425.074 98.463C424.994 98.4249 424.914 98.3878 424.834 98.3497C424.773 98.3195 424.714 98.2907 424.654 98.2616C423.083 97.5045 421.531 96.7291 420.006 95.9354C418.422 95.1111 416.866 94.2693 415.342 93.4101C413.818 92.5509 412.325 91.6746 410.871 90.7851C409.417 89.8956 408 88.9913 406.625 88.076C405.25 87.1608 403.917 86.2351 402.631 85.2987C401.345 84.3622 400.108 83.4158 398.922 82.4628C397.735 81.5097 396.599 80.549 395.521 79.5839C394.466 78.6387 393.469 77.6906 392.527 76.7382C392.508 76.7193 392.485 76.6963 392.465 76.6758C392.446 76.6569 392.426 76.6358 392.406 76.6154C391.471 75.6644 390.595 74.7207 389.785 73.7872C388.957 72.8331 388.194 71.8872 387.494 70.9493C386.794 70.0115 386.157 69.0822 385.582 68.1583C385.007 67.2346 384.493 66.3163 384.039 65.4044C383.585 64.4926 383.191 63.5858 382.856 62.6837C382.52 61.7816 382.242 60.8848 382.022 59.9904C381.801 59.0959 381.638 58.2037 381.529 57.3146C381.421 56.4255 381.367 55.5382 381.367 54.6525L381.367 54.6506L381.483 54.6506L381.483 47.1974L381.483 47.1955L381.483 22.1779L381.483 14.7286L381.483 14.7267L381.483 7.77362C381.483 7.26569 381.43 6.77014 381.332 6.29114C381.234 5.81219 381.091 5.3504 380.904 4.91028C380.719 4.47021 380.491 4.05176 380.227 3.66028C379.962 3.26886 379.661 2.90521 379.328 2.57239C378.995 2.23944 378.63 1.93835 378.238 1.67395C377.847 1.40936 377.428 1.18237 376.988 0.996277C376.548 0.809937 376.086 0.664429 375.608 0.566589C375.129 0.468689 374.633 0.416138 374.125 0.416138L367.68 0.416138L364.02 0.416138L359.545 0.416016ZM456.221 0.416016C452.157 0.416016 448.863 3.70996 448.863 7.7735L448.863 29.1289L448.863 54.6505L448.977 54.6505L448.977 54.6524C448.977 74.9366 447.595 89.6111 444.965 98.9044C454.595 102.366 464.411 105.131 473.203 107.113C473.383 106.531 473.517 105.917 473.684 105.326C474.456 101.182 475.122 97.1407 476.174 93.422C477.839 82.0447 478.043 69.2624 478.043 54.6525L478.043 54.6505L478.158 54.6505L478.158 46.5861L478.158 18.4513L478.158 10.3869L478.158 7.77362C478.158 3.71008 474.864 0.416138 470.801 0.416138L464.354 0.416138L460.695 0.416138L456.221 0.416016ZM519.457 0.416016C507.84 0.416016 498.422 9.83392 498.422 21.4512L498.422 61.0196L498.422 67.9063L498.422 82.375C498.422 86.4385 501.716 89.7325 505.779 89.7325L510.254 89.7325L513.914 89.7325L520.359 89.7325C524.423 89.7325 527.717 86.4385 527.717 82.375L527.717 67.9063L527.717 61.0196L527.717 42.9454C527.717 42.7991 527.736 42.6573 527.739 42.5118L527.724 42.5118L527.724 39.4298C527.724 32.6564 533.214 27.1641 539.988 27.1641L543.093 27.1641L543.093 27.1868C543.229 27.1833 543.361 27.1641 543.498 27.1641L632.56 27.1641L637.011 27.1641L653.918 27.1641C657.981 27.1641 661.275 23.8722 661.275 19.8087L661.275 7.77356C661.275 3.71002 657.981 0.416077 653.917 0.416077L637.011 0.416077L632.56 0.416077L543.093 0.416077L519.457 0.416016ZM701.207 0.416016C689.59 0.416016 680.172 9.83392 680.172 21.4512L680.172 118.537L680.172 124.992L680.172 139.893C680.172 143.956 683.466 147.248 687.529 147.248L692.004 147.248L695.664 147.248L702.111 147.248C706.175 147.248 709.467 143.956 709.467 139.893L709.467 124.992L709.467 118.537L709.467 37.2949C709.467 33.106 712.864 29.709 717.053 29.709L766.308 29.709C769.824 29.709 770.9 31.9388 768.711 34.6895L746.652 62.4062C742.78 67.2719 742.78 75.1597 746.652 80.0254L762.879 100.412L787.783 131.705C794.079 139.617 807.384 146.033 817.496 146.033L831.301 146.033C833.719 146.033 834.461 144.498 832.955 142.606L799.377 100.412L799.375 100.412L782.9 79.713C779.166 75.0208 779.166 67.409 782.9 62.7168C795.634 46.7159 808.369 30.715 821.103 14.7148C827.389 6.81665 824.299 0.416016 814.205 0.416016L701.207 0.416016ZM1057.04 0.416016C1045.43 0.423584 1036.02 9.83917 1036.02 21.4512L1036.02 38.3047L1035.9 72.6153C1035.9 81.3759 1043 88.4786 1051.76 88.4786L1164.25 88.4786C1166.37 88.4786 1168.09 90.2004 1168.09 92.3223L1168.09 101.885L1168.09 104.715C1168.09 104.722 1168.09 104.734 1168.09 104.745L1168.09 104.745L1168.09 108.237C1168.09 115.011 1162.6 120.503 1155.82 120.503L1152.72 120.503L1152.72 120.477C1152.58 120.48 1152.45 120.499 1152.31 120.499L1049.19 120.499L1049.19 120.507L1043.94 120.507C1039.88 120.507 1036.58 123.799 1036.58 127.862L1036.58 139.899C1036.58 143.963 1039.88 147.257 1043.94 147.257L1065.3 147.257L1065.3 147.253L1143.65 147.253L1143.65 147.257L1176.35 147.257C1187.96 147.257 1197.38 137.837 1197.38 126.22L1197.38 104.747L1197.38 101.891L1197.38 75.0534C1197.38 66.2928 1190.28 59.1901 1181.52 59.1901L1069.04 59.1901C1066.91 59.1901 1065.19 57.4703 1065.19 55.3483C1065.19 49.933 1065.32 44.6768 1065.32 39.4362C1065.32 32.6628 1070.81 27.1705 1077.58 27.1705C1077.48 27.1705 1080.78 27.1819 1080.69 27.1857L1080.69 27.1705L1080.69 27.1705L1168.67 27.1705L1174.33 27.1705L1190.03 27.1705C1194.09 27.1705 1197.38 23.8786 1197.38 19.8151L1197.38 7.77795C1197.38 3.71448 1194.09 0.420532 1190.03 0.420532L1174.33 0.420532L1168.67 0.420532L1080.69 0.420532L1077.64 0.420532L1057.06 0.412964L1057.04 0.416016ZM5.16199 5.57819C4.76343 5.97681 4.38434 6.39307 4.02527 6.82819C4.38434 6.39307 4.76532 5.97681 5.16394 5.57819L5.16199 5.57819ZM553.41 59.1836C549.347 59.1836 546.055 62.4795 546.055 66.543L546.055 71.0157L546.055 74.6739L546.055 81.1212C546.055 85.1846 549.346 88.4786 553.41 88.4786L569.738 88.4786L574.767 88.4786L631.193 88.4786L652.551 88.4786C656.614 88.4786 659.906 85.1846 659.906 81.1212L659.906 74.6739L659.906 71.0157L659.906 66.543C659.906 62.4795 656.614 59.1836 652.551 59.1836L631.193 59.1836L574.767 59.1836L569.738 59.1836L553.41 59.1836ZM274.621 117.951C264.247 117.951 250.599 124.532 244.139 132.648L235.32 143.73C233.775 145.672 234.532 147.246 237.014 147.248L304.473 147.25L334.828 147.25L392.103 147.25L400.209 147.25C416.419 147.038 428.866 145.456 438.533 142.912C428.749 139.644 418.844 135.686 409.139 131.023C401.139 127.18 393.321 122.872 385.988 117.953L379.006 117.953L334.828 117.953L274.621 117.951ZM1192.82 141.44C1192.62 141.659 1192.43 141.887 1192.22 142.096C1192.43 141.887 1192.62 141.659 1192.82 141.44L1192.82 141.44ZM148.422 146.457C148.012 146.585 147.588 146.684 147.166 146.781C147.588 146.684 148.011 146.585 148.422 146.457L148.422 146.457ZM146.5 146.928C145.452 147.128 144.373 147.241 143.267 147.246C144.373 147.242 145.452 147.128 146.5 146.928L146.5 146.928Z" id="Word" fill="url(#gradient_1)" fill-rule="evenodd" stroke="none" />
</svg>
