<?xml version="1.0" encoding="utf-8"?>
<svg width="992px" height="128px" viewBox="0 0 992 128" version="1.1" xmlns:xlink="http://www.w3.org/1999/xlink" xmlns="http://www.w3.org/2000/svg">
  <defs>
    <path d="M992 0L992 0L992 128L0 128L0 0L992 0Z" id="path_1" />
    <clipPath id="clip_1">
      <use xlink:href="#path_1" clip-rule="evenodd" fill-rule="evenodd" />
    </clipPath>
  </defs>
  <g id="Remake Solid">
    <path d="M992 0L992 0L992 128L0 128L0 0L992 0Z" id="Remake-Solid" fill="none" stroke="none" />
    <path d="M83 24L32 24C29.7909 24 27.9053 24.781 26.3432 26.3431C24.7811 27.9052 24 29.7909 24 32L24 123C24 125.761 21.7614 128 19 128L5 128C2.23858 128 7.42945e-14 125.761 7.42945e-14 123L7.42945e-14 32C-5.5631e-07 23.1634 3.1242 15.621 9.37259 9.37258C15.621 3.12419 23.1635 0 32 0L83.0001 0C85.7615 0 88.0001 2.23858 88 5L88 19C88 21.7614 85.7614 24 83 24L83 24ZM312.001 7.35728L312.001 3.6771C312 2.66165 311.641 1.79493 310.923 1.07696C310.205 0.358986 309.338 0 308.323 0L293 0C290.239 0 288.001 2.23858 288.001 5L288.006 23.7867C288.008 33.2819 290.366 42.1508 295.079 50.3935C299.792 58.6362 306.24 65.1663 314.422 69.984L399.582 120.125C408.327 125.274 417.773 127.877 427.921 127.933L439.912 127.999L554.999 128.003C555.662 128.003 556.3 127.876 556.912 127.622C557.525 127.369 558.066 127.007 558.534 126.539C559.003 126.07 559.365 125.529 559.618 124.917C559.872 124.304 559.999 123.666 559.999 123.003L559.999 109.003C559.999 107.622 559.511 106.444 558.535 105.468C557.559 104.491 556.38 104.003 555 104.003L533.101 104.002L440.045 103.999L428.053 103.933C422.219 103.901 416.787 102.405 411.759 99.444L326.6 49.3026C322.079 46.6412 318.517 43.0336 315.913 38.4799C313.309 33.9262 312.007 29.0266 312.006 23.7811L312.001 7.35728L312.001 7.35728ZM49 104L96.0001 104C99.3138 104 102.142 102.829 104.485 100.485C106.828 98.1423 108 95.3139 108 92.0002L108 18.3158L108 5.00001C108 3.6193 108.488 2.44079 109.464 1.46448C110.441 0.488168 111.619 1.18309e-05 113 1.10294e-05L127 2.90248e-06C129.761 0 132 2.23858 132 5L132 92.0001C132 101.941 128.485 110.427 121.456 117.456C114.426 124.485 105.941 128 96.0001 128L49 128C46.2386 128 44 125.761 44 123L44 109C44 106.239 46.2386 104 49 104L49 104ZM168 5.00001L168 81.0127C168 81.2214 168.06 81.4115 168.179 81.5829C168.298 81.7544 168.455 81.8764 168.651 81.9491C168.847 82.0219 169.046 82.0322 169.248 81.9802C169.45 81.9282 169.619 81.8231 169.756 81.665L229.816 11.9953C233.099 8.18723 237.025 5.236 241.596 3.14161C246.167 1.04721 250.966 6.67572e-06 255.994 6.67572e-06L267.481 6.67572e-06C267.872 6.67324e-06 268.232 0.105557 268.56 0.316658C268.889 0.527759 269.135 0.810971 269.298 1.16629C269.461 1.52162 269.515 1.89277 269.46 2.27975C269.405 2.66673 269.25 3.00824 268.995 3.30427L167.211 121.373C165.398 123.477 163.228 125.107 160.703 126.264C158.178 127.422 155.527 128 152.749 128L149 128C147.619 128 146.441 127.512 145.464 126.536C144.488 125.559 144 124.381 144 123L144 5.00001C144 3.6193 144.488 2.44078 145.464 1.46447C146.441 0.488162 147.619 6.67572e-06 149 6.67572e-06L163 6.67572e-06C164.381 6.67572e-06 165.559 0.488162 166.536 1.46447C167.512 2.44078 168 3.61929 168 5.00001L168 5.00001ZM386.06 75.0292L406.809 87.2456C408.441 84.1325 409.865 80.8872 411.08 77.5099C414.554 67.8584 415.502 57.4923 415.502 47.5L415.502 5.00047C415.502 2.23904 413.263 0.000411635 410.502 0.000344919L396.502 6.67724e-06C395.839 -9.33432e-06 395.201 0.126845 394.589 0.380568C393.976 0.634292 393.435 0.995572 392.966 1.46441C392.498 1.93324 392.136 2.47395 391.883 3.08652C391.629 3.6991 391.521 4.33691 391.521 4.99996L391.5 48.69C391.5 58.3417 389.894 67.1202 386.06 75.0292L386.06 75.0292ZM555 24L464 24C461.791 24 459.905 24.7811 458.343 26.3432C456.781 27.9052 456 29.7909 456 32L456 90.0001C456 92.7615 453.761 95.0001 451 95.0001L437 95.0001C434.239 95.0001 432 92.7615 432 90.0001L432 32C432 23.1635 435.124 15.621 441.373 9.37259C447.621 3.1242 455.163 6.67572e-06 464 6.67572e-06L555 6.67572e-06C557.762 6.67572e-06 560 2.23858 560 5.00001L560 19C560 21.7614 557.762 24 555 24L555 24ZM581 128L595 128C597.761 128 600 125.761 600 123L600 32C600 29.7909 600.781 27.9052 602.343 26.3432C603.905 24.7811 605.791 24 608 24L663.029 24L631.515 55.5147C629.403 57.6261 628.242 60.171 628.03 63.1493C627.819 66.1277 628.608 68.8113 630.4 71.2L664 116C668.971 122.627 679.716 128 688 128L701.008 128C701.197 128 701.372 127.95 701.533 127.851C701.694 127.752 701.817 127.618 701.901 127.449C701.986 127.28 702.02 127.101 702.003 126.913C701.987 126.725 701.922 126.555 701.809 126.404L658.99 69.0076C657.339 66.7943 657.582 63.4166 659.534 61.4633L700.485 20.4853C701.611 19.3601 702.478 18.0624 703.087 16.5922C703.696 15.122 704 13.5913 704 12C704 8.6863 702.828 5.85787 700.485 3.51473C698.142 1.17158 695.314 6.67572e-06 692 6.67572e-06L608 6.67572e-06C599.163 6.59625e-06 591.621 3.1242 585.373 9.37259C579.124 15.621 576 23.1634 576 32L576 123C576 125.761 578.239 128 581 128L581 128ZM843 6.67572e-06L829 6.67572e-06C826.239 6.67572e-06 824 2.23858 824 5.00001L824 96C824 98.2091 823.219 100.095 821.657 101.657C820.095 103.219 818.209 104 816 104L752 104C749.791 104 747.905 103.219 746.343 101.657C744.781 100.095 744 98.2091 744 96L744 5.00001C744 2.23858 741.761 6.67572e-06 739 6.67572e-06L725 6.67572e-06C722.239 6.67572e-06 720 2.23858 720 5.00001L720 96C720 104.837 723.124 112.379 729.373 118.627C735.621 124.876 743.163 128 752 128L816 128C824.837 128 832.379 124.876 838.627 118.627C844.876 112.379 848 104.837 848 96L848 5.00001C848 2.23858 845.761 6.67572e-06 843 6.67572e-06L843 6.67572e-06ZM869 104L960 104C962.209 104 964.095 103.219 965.657 101.657C967.219 100.095 968 98.2092 968 96L968 84C968 81.7909 967.219 79.9052 965.657 78.3431C964.095 76.7811 962.209 76 960 76L896 76C887.164 76 879.621 72.8758 873.373 66.6274C867.124 60.379 864 52.8365 864 44L864 32C864 23.1634 867.124 15.621 873.373 9.37259C879.621 3.1242 887.163 6.35783e-06 896 6.67572e-06L987 6.67572e-06C989.761 6.67572e-06 992 2.23858 992 5.00001L992 19C992 21.7614 989.761 24 987 24L896 24C893.791 24 891.905 24.7811 890.343 26.3432C888.781 27.9052 888 29.7909 888 32L888 44C888 46.2091 888.781 48.0947 890.343 49.6569C891.905 51.219 893.791 52 896 52L960 52C968.837 52 976.379 55.1242 982.627 61.3726C988.876 67.6209 992 75.1634 992 84L992 96C992 104.837 988.876 112.379 982.628 118.627C976.379 124.876 968.837 128 960 128L869 128C866.239 128 864 125.761 864 123L864 109C864 106.238 866.239 104 869 104L869 104ZM477 76L555 76C556.381 76 557.559 75.5118 558.536 74.5355C559.512 73.5592 560 72.3807 560 71L560 57C560 55.6193 559.512 54.4408 558.536 53.4645C557.559 52.4882 556.381 52 555 52L477 52C475.619 52 474.441 52.4882 473.464 53.4645C472.488 54.4408 472 55.6193 472 57L472 71C472 72.3807 472.488 73.5592 473.464 74.5355C474.441 75.5118 475.619 76 477 76L477 76ZM378.672 117.098L353.07 102.023C347.784 103.39 342.16 104 336.19 104L212.69 104C204.405 104 193.305 109.087 187.895 115.361L180.358 124.105C178.555 126.197 179.331 127.894 182.093 127.896L335.179 128.001C345.493 128.001 355.36 127.054 365.011 123.58C369.834 121.844 374.388 119.683 378.672 117.098L378.672 117.098Z" id="Vector" fill="#000000" fill-rule="evenodd" stroke="none" clip-path="url(#clip_1)" />
  </g>
</svg>
