<?xml version="1.0" encoding="utf-8"?>
<svg width="992px" height="128px" viewBox="0 0 992 128" version="1.1" xmlns:xlink="http://www.w3.org/1999/xlink" xmlns="http://www.w3.org/2000/svg">
  <defs>
    <linearGradient gradientUnits="objectBoundingBox" x1="0" y1="0.49998766" x2="1" y2="0.49998766" id="gradient_1">
      <stop offset="0%" stop-color="#00FFFF" />
      <stop offset="100%" stop-color="#FF00FF" />
    </linearGradient>
    <path d="M992 0L992 0L992 128L0 128L0 0L992 0Z" id="path_1" />
    <clipPath id="clip_1">
      <use xlink:href="#path_1" clip-rule="evenodd" fill-rule="evenodd" />
    </clipPath>
  </defs>
  <g id="Remake Gradient">
    <path d="M992 0L992 0L992 128L0 128L0 0L992 0Z" id="Remake-Gradient" fill="none" stroke="none" />
    <path d="M32 24L83 24C85.7614 24 88 21.7614 88 19L88 4.99999C88.0001 2.23857 85.7615 -6.67572e-06 83.0001 -6.67572e-06L32 -6.67572e-06C23.1635 -6.67572e-06 15.621 3.12419 9.37259 9.37258C3.1242 15.621 0 23.1634 0 32L0 123C0 125.761 2.23858 128 5 128L19 128C21.7614 128 24 125.761 24 123L24 32C24 29.7909 24.7811 27.9052 26.3432 26.3431C27.9053 24.781 29.7909 24 32 24L32 24ZM312.001 3.67709L312.001 7.35727L312.006 23.7811C312.007 29.0266 313.309 33.9262 315.913 38.4799C318.517 43.0336 322.079 46.6412 326.6 49.3026L411.759 99.444C416.787 102.405 422.219 103.901 428.053 103.933L440.045 103.999L533.101 104.002L555 104.003C556.38 104.003 557.559 104.491 558.535 105.468C559.511 106.444 559.999 107.622 559.999 109.003L559.999 123.003C559.999 123.666 559.872 124.304 559.618 124.917C559.365 125.529 559.003 126.07 558.534 126.539C558.066 127.007 557.525 127.369 556.912 127.622C556.3 127.876 555.662 128.003 554.999 128.003L439.912 127.999L427.921 127.933C417.773 127.877 408.327 125.274 399.582 120.125L314.422 69.984C306.24 65.1663 299.792 58.6362 295.079 50.3935C290.366 42.1508 288.008 33.2819 288.006 23.7867L288.001 4.99999C288.001 2.23857 290.239 -6.67572e-06 293 -6.67572e-06L308.323 -6.67572e-06C309.338 -6.67572e-06 310.205 0.35898 310.923 1.07695C311.641 1.79493 312 2.66164 312.001 3.67709L312.001 3.67709ZM96.0001 104L49 104C46.2386 104 44 106.239 44 109L44 123C44 125.761 46.2386 128 49 128L96.0001 128C105.941 128 114.426 124.485 121.456 117.456C128.485 110.427 132 101.941 132 92.0001L132 4.99999C132 2.23857 129.761 -6.67572e-06 127 -3.77324e-06L113 4.35372e-06C111.619 5.15522e-06 110.441 0.488161 109.464 1.46447C108.488 2.44078 108 3.61929 108 5.00001L108 18.3158L108 92.0001C108 95.3138 106.828 98.1423 104.485 100.485C102.142 102.829 99.3138 104 96.0001 104L96.0001 104ZM406.809 87.2456L386.06 75.0291C389.894 67.1202 391.5 58.3417 391.5 48.69L391.521 4.99995C391.521 4.3369 391.629 3.69909 391.883 3.08652C392.136 2.47394 392.498 1.93324 392.966 1.4644C393.435 0.995565 393.976 0.634285 394.589 0.380562C395.201 0.126838 395.839 -1.601e-05 396.502 0L410.502 0.000338243C413.263 0.000404959 415.502 2.23904 415.502 5.00046L415.502 47.5C415.502 57.4923 414.554 67.8584 411.08 77.5099C409.865 80.8872 408.441 84.1324 406.809 87.2456L406.809 87.2456ZM168 81.0126L168 5C168 3.61929 167.512 2.44078 166.536 1.46447C165.559 0.488155 164.381 0 163 0L149 0C147.619 0 146.441 0.488155 145.464 1.46447C144.488 2.44078 144 3.61929 144 5L144 123C144 124.381 144.488 125.559 145.464 126.536C146.441 127.512 147.619 128 149 128L152.749 128C155.527 128 158.178 127.421 160.703 126.264C163.228 125.107 165.398 123.477 167.211 121.373L268.995 3.30426C269.25 3.00823 269.405 2.66672 269.46 2.27974C269.515 1.89276 269.461 1.52161 269.298 1.16629C269.135 0.810964 268.889 0.527752 268.56 0.316651C268.232 0.10555 267.872 0 267.481 0L255.994 0C250.966 0 246.167 1.0472 241.596 3.1416C237.025 5.236 233.099 8.18722 229.816 11.9953L169.756 81.6649C169.619 81.8231 169.45 81.9282 169.248 81.9802C169.046 82.0322 168.847 82.0218 168.651 81.9491C168.455 81.8764 168.298 81.7543 168.179 81.5829C168.06 81.4115 168 81.2214 168 81.0126L168 81.0126ZM464 24L555 24C557.762 24 560 21.7614 560 19L560 5C560 2.23858 557.762 0 555 0L464 0C455.163 0 447.621 3.1242 441.373 9.37259C435.124 15.621 432 23.1634 432 32L432 90C432 92.7615 434.239 95 437 95L451 95C453.761 95 456 92.7615 456 90L456 32C456 29.7909 456.781 27.9052 458.343 26.3431C459.905 24.7811 461.791 24 464 24L464 24ZM595 128L581 128C578.239 128 576 125.761 576 123L576 32C576 23.1634 579.124 15.621 585.373 9.37258C591.621 3.12419 599.163 0 608 0L692 0C695.314 0 698.142 1.17157 700.485 3.51472C702.828 5.85786 704 8.68629 704 12C704 13.5913 703.696 15.122 703.087 16.5922C702.478 18.0624 701.611 19.3601 700.485 20.4853L659.534 61.4633C657.582 63.4166 657.339 66.7943 658.99 69.0076L701.809 126.404C701.922 126.555 701.987 126.725 702.003 126.913C702.02 127.101 701.986 127.28 701.901 127.449C701.817 127.618 701.694 127.752 701.533 127.851C701.372 127.95 701.197 128 701.008 128L688 128C679.716 128 668.971 122.627 664 116L630.4 71.2C628.608 68.8113 627.819 66.1277 628.03 63.1493C628.242 60.1709 629.403 57.6261 631.515 55.5147L663.029 24L608 24C605.791 24 603.905 24.781 602.343 26.3431C600.781 27.9052 600 29.7909 600 32L600 123C600 125.761 597.761 128 595 128L595 128ZM829 0L843 0C845.761 0 848 2.23858 848 5L848 96C848 104.837 844.876 112.379 838.627 118.627C832.379 124.876 824.837 128 816 128L752 128C743.163 128 735.621 124.876 729.373 118.627C723.124 112.379 720 104.837 720 96L720 5C720 2.23858 722.239 0 725 0L739 0C741.761 0 744 2.23858 744 5L744 96C744 98.2091 744.781 100.095 746.343 101.657C747.905 103.219 749.791 104 752 104L816 104C818.209 104 820.095 103.219 821.657 101.657C823.219 100.095 824 98.2091 824 96L824 5C824 2.23858 826.239 0 829 0L829 0ZM960 104L869 104C866.239 104 864 106.238 864 109L864 123C864 125.761 866.239 128 869 128L960 128C968.837 128 976.379 124.876 982.628 118.627C988.876 112.379 992 104.837 992 96L992 84C992 75.1634 988.876 67.6209 982.627 61.3726C976.379 55.1242 968.837 52 960 52L896 52C893.791 52 891.905 51.219 890.343 49.6569C888.781 48.0947 888 46.2091 888 44L888 32C888 29.7909 888.781 27.9052 890.343 26.3431C891.905 24.781 893.791 24 896 24L987 24C989.761 24 992 21.7614 992 19L992 5C992 2.23858 989.761 0 987 0L896 0C887.163 0 879.621 3.12419 873.373 9.37258C867.124 15.6209 864 23.1634 864 32L864 44C864 52.8365 867.124 60.379 873.373 66.6274C879.621 72.8758 887.164 76 896 76L960 76C962.209 76 964.095 76.781 965.657 78.3431C967.219 79.9052 968 81.7908 968 84L968 96C968 98.2092 967.219 100.095 965.657 101.657C964.095 103.219 962.209 104 960 104L960 104ZM555 76L477 76C475.619 76 474.441 75.5118 473.464 74.5355C472.488 73.5592 472 72.3807 472 71L472 57C472 55.6193 472.488 54.4408 473.464 53.4645C474.441 52.4882 475.619 52 477 52L555 52C556.381 52 557.559 52.4882 558.536 53.4645C559.512 54.4408 560 55.6193 560 57L560 71C560 72.3807 559.512 73.5592 558.536 74.5355C557.559 75.5118 556.381 76 555 76L555 76ZM353.07 102.023L378.672 117.098C374.388 119.683 369.834 121.844 365.011 123.58C355.36 127.054 345.493 128.001 335.179 128.001L182.093 127.896C179.331 127.894 178.555 126.197 180.358 124.105L187.895 115.361C193.305 109.087 204.405 104 212.69 104L336.19 104C342.16 104 347.784 103.39 353.07 102.023L353.07 102.023Z" id="Vector" fill="url(#gradient_1)" fill-rule="evenodd" stroke="none" clip-path="url(#clip_1)" />
  </g>
</svg>
